<?xml version="1.0" standalone="no"?>
<!DOCTYPE svg PUBLIC "-//W3C//DTD SVG 20010904//EN"
 "http://www.w3.org/TR/2001/REC-SVG-20010904/DTD/svg10.dtd">
<svg version="1.0" xmlns="http://www.w3.org/2000/svg"
 width="199.000000pt" height="202.000000pt" viewBox="0 0 199.000000 202.000000"
 preserveAspectRatio="xMidYMid meet">

<g transform="translate(0.000000,202.000000) scale(0.100000,-0.100000)"
fill="#000000" stroke="none">
<path d="M865 1994 c-168 -21 -272 -50 -318 -87 l-29 -23 16 -55 c11 -37 16
-88 15 -151 l-2 -95 -206 -42 c-235 -48 -296 -74 -296 -125 0 -19 8 -35 25
-47 31 -22 129 -39 233 -39 43 0 77 -4 75 -8 -5 -13 -102 -166 -186 -294 -98
-149 -115 -185 -148 -313 -26 -102 -28 -125 -29 -305 0 -190 1 -196 26 -251
15 -31 40 -66 57 -78 74 -52 182 -66 240 -31 31 19 50 20 360 19 180 0 428 -4
552 -8 204 -7 229 -9 267 -29 33 -17 59 -22 121 -22 145 0 215 57 242 198 30
159 -45 590 -133 767 -11 22 -71 118 -134 214 -63 96 -117 180 -119 186 -5 11
52 23 236 51 150 22 250 53 250 78 0 28 -7 30 -380 80 -177 24 -174 23 -178
73 -2 27 6 61 22 102 51 119 27 163 -110 208 -72 24 -95 27 -259 29 -99 1
-193 0 -210 -2z m-272 -501 c-13 -2 -33 -2 -45 0 -13 2 -3 4 22 4 25 0 35 -2
23 -4z m132 -17 c35 -15 61 -49 50 -67 -4 -5 -22 6 -43 26 -20 19 -40 35 -44
35 -4 0 -8 5 -8 10 0 13 4 13 45 -4z m548 -88 c2 -7 -1 -23 -6 -35 -13 -30
-76 -33 -94 -4 -9 15 -9 21 0 29 30 23 93 29 100 10z m-496 -70 c-2 -13 -4 -5
-4 17 -1 22 1 32 4 23 2 -10 2 -28 0 -40z m-233 26 c21 -21 20 -37 -3 -58 -25
-23 -65 -17 -69 9 -3 20 30 65 48 65 5 0 16 -7 24 -16z m-147 -46 c-3 -7 -5
-2 -5 12 0 14 2 19 5 13 2 -7 2 -19 0 -25z m370 -30 c-3 -8 -6 -5 -6 6 -1 11
2 17 5 13 3 -3 4 -12 1 -19z m-67 -103 c-7 -8 -17 -15 -23 -15 -6 0 -2 7 9 15
25 19 30 19 14 0z m-91 -21 c2 -2 -16 -4 -42 -4 -39 0 -46 -3 -50 -22 -3 -17
-5 -14 -6 9 l-1 33 48 -7 c26 -3 49 -7 51 -9z m48 0 c-3 -3 -12 -4 -19 -1 -8
3 -5 6 6 6 11 1 17 -2 13 -5z m-180 -276 c-3 -8 -6 -5 -6 6 -1 11 2 17 5 13 3
-3 4 -12 1 -19z m785 -115 c59 -52 66 -61 92 -118 32 -68 38 -112 40 -292 1
-142 3 -156 21 -171 18 -15 57 -96 50 -104 -5 -5 -589 12 -605 18 -12 4 -9 11
13 29 47 41 31 62 -18 23 -23 -18 -31 -19 -47 -9 -26 16 -43 4 -24 -18 9 -10
13 -21 9 -24 -10 -10 -403 -8 -403 1 0 23 33 72 49 72 37 0 52 34 61 137 16
179 69 364 115 403 12 10 21 7 45 -14 48 -39 94 -49 226 -44 140 4 169 15 253
95 31 29 62 52 68 53 7 0 32 -17 55 -37z m-937 -128 c-22 -19 -44 -35 -49 -35
-5 0 11 16 35 34 57 45 66 45 14 1z m-115 -80 c-7 -8 -17 -15 -23 -15 -6 0 -2
7 9 15 25 19 30 19 14 0z"/>
<path d="M740 591 c0 -6 7 -14 15 -17 8 -4 15 -15 15 -26 0 -14 5 -18 15 -14
9 3 24 0 35 -6 24 -15 37 -4 20 17 -10 12 -8 16 14 25 36 13 34 34 -1 25 -37
-9 -63 -9 -90 0 -15 5 -23 3 -23 -4z"/>
<path d="M826 349 c-23 -18 -27 -18 -32 -5 -3 9 -13 16 -21 16 -11 0 -13 -7
-8 -28 4 -20 1 -33 -9 -42 -26 -20 -7 -32 23 -14 28 16 30 16 63 -10 39 -29
48 -32 48 -13 0 7 -14 23 -31 36 -24 18 -28 25 -18 37 6 8 17 14 24 14 7 0 18
7 25 15 20 24 -32 19 -64 -6z"/>
</g>
</svg>
