<?xml version="1.0" encoding="UTF-8"?>
<svg id="Capa_2" data-name="Capa 2" xmlns="http://www.w3.org/2000/svg" viewBox="0 0 2038 2031">
  <defs>
    <style>
      .cls-1 {
        fill: #c1272d;
      }

      .cls-1, .cls-2, .cls-3, .cls-4, .cls-5 {
        stroke-width: 0px;
      }

      .cls-3 {
        fill: #1a1a1a;
      }

      .cls-6 {
        fill: #fff;
        opacity: .43;
      }

      .cls-6, .cls-7, .cls-8 {
        stroke-miterlimit: 10;
      }

      .cls-6, .cls-8 {
        stroke: #000;
        stroke-width: 1.86px;
      }

      .cls-4 {
        fill: #2c4654;
      }

      .cls-7 {
        fill: none;
        stroke: #c1272d;
        stroke-width: 7.09px;
      }

      .cls-8 {
        fill: #fbb03b;
      }

      .cls-5 {
        fill: #517484;
      }
    </style>
  </defs>
  <circle class="cls-4" cx="1051.55" cy="1015.5" r="824.5"/>
  <circle class="cls-5" cx="1051.55" cy="1015.5" r="668.61"/>
  <g>
    <path class="cls-2" d="m1912.57,1563.94s29.69,45.12-47.1,58.87c-76.8,13.75-830.68-132.28-1032.2-211.48-201.52-79.2-941.96-270.87-743.76-371.2l1823.06,523.81Z"/>
    <path class="cls-2" d="m1430.69,638.05s-145.03-12.57-291.78-65.09c-117.7-42.12-217.32-135.51-389.81-124.75-185.27,11.56-219.66,60.95-254.9,427.52-35.24,366.57,12.43,39.28,12.43,39.28,0,0,627.22,248.39,643.45,256.08,16.23,7.69,462.31,46.71,462.31,46.71,0,0,25.49-71.29,167.01-327.2,141.52-255.91-320.3-259.68-586.11-255.32"/>
    <path class="cls-3" d="m1605.29,1417.21s335.94,105.57,307.28,146.73c-28.66,41.16-745.65-140.29-1013.75-229.19-268.1-88.9-796.74-224.46-809.31-294.62-6.25-34.91,310.72,45.24,310.72,45.24l1205.06,331.84Z"/>
    <path class="cls-1" d="m1618.97,1216.61c15.38,1.24,40.1,18.04,35.62,33.25-4.48,15.21-55.55,132.44-49.3,167.34,0,0-274.71-47.29-562.36-122.67-300.15-78.66-614.06-185.95-628.21-205.18,37.62-34.93-.61-208.22,91.92-174.35,104.51,60.55,959.67,289.31,1112.33,301.61Z"/>
    <path class="cls-7" d="m1618.97,1216.61c15.38,1.24,40.1,18.04,35.62,33.25-4.48,15.21-55.55,132.44-49.3,167.34,0,0-274.71-47.29-562.36-122.67-300.15-78.66-614.06-185.95-628.21-205.18,37.62-34.93-.61-208.22,91.92-174.35,104.51,60.55,959.67,289.31,1112.33,301.61Z"/>
  </g>
  <g>
    <path class="cls-8" d="m945.11,818.58c-93.08-93.29-259.08-78.59-370.76,32.84-17.79,17.75-33.12,36.88-45.96,56.89-7.82-2.84-16.76-6.09-22.72-8.27,1.58-12.42-3.52-25.29-14.4-33.11-15.81-11.37-37.85-7.76-49.21,8.05-11.37,15.81-7.76,37.85,8.05,49.21,12.08,8.68,27.79,8.6,39.6,1.03l20.7,14.88c-48.7,98.82-40.3,211.28,30.25,282,93.08,93.29,259.08,78.59,370.76-32.84,111.68-111.43,126.76-277.39,33.68-370.69Zm-457.84,88.89c-6.58,9.16-19.34,11.24-28.49,4.66-9.16-6.58-11.24-19.34-4.66-28.49,6.58-9.15,19.34-11.24,28.49-4.66,9.16,6.58,11.24,19.34,4.66,28.49Zm396.26,253.83c-93.2,92.99-231.72,105.25-309.39,27.4-77.67-77.85-65.09-216.34,28.11-309.33,93.2-92.99,231.72-105.25,309.39-27.4,77.67,77.85,65.09,216.34-28.11,309.33Z"/>
    <ellipse class="cls-6" cx="743.58" cy="1020.02" rx="238.38" ry="199.13" transform="translate(-503.26 823.13) rotate(-44.93)"/>
  </g>
</svg>